<?xml version="1.0" encoding="utf-8"?>
<!-- Generator: Adobe Illustrator 16.0.4, SVG Export Plug-In . SVG Version: 6.00 Build 0)  -->
<!DOCTYPE svg PUBLIC "-//W3C//DTD SVG 1.1//EN" "http://www.w3.org/Graphics/SVG/1.1/DTD/svg11.dtd">
<svg version="1.1" xmlns="http://www.w3.org/2000/svg" xmlns:xlink="http://www.w3.org/1999/xlink" x="0px" y="0px" width="65px"
	 height="65px" viewBox="0 0 65 65" enable-background="new 0 0 65 65" xml:space="preserve">
<g id="left-arrow" display="none">
	<g display="inline">
		<defs>
			<path id="SVGID_1_" d="M0.018,6.41c0-3.558,2.885-6.441,6.443-6.441h52.178c3.556,0,6.441,2.883,6.441,6.441v52.18
				c0,3.558-2.886,6.44-6.441,6.44H6.46c-3.558,0-6.443-2.883-6.443-6.44V6.41z"/>
		</defs>
		<clipPath id="SVGID_2_">
			<use xlink:href="#SVGID_1_"  overflow="visible"/>
		</clipPath>
		<g id="arrow_16_" clip-path="url(#SVGID_2_)">
			<path fill="#33B0CC" d="M0.018,6.41c0-3.558,2.885-6.441,6.443-6.441h52.178c3.556,0,6.441,2.883,6.441,6.441v52.18
				c0,3.558-2.886,6.44-6.441,6.44H6.46c-3.558,0-6.443-2.883-6.443-6.44V6.41z"/>
			<g>
				<defs>
					<path id="SVGID_3_" d="M0.018,6.41c0-3.558,2.885-6.441,6.443-6.441h52.178c3.556,0,6.441,2.883,6.441,6.441v52.18
						c0,3.558-2.886,6.44-6.441,6.44H6.46c-3.558,0-6.443-2.883-6.443-6.44V6.41z"/>
				</defs>
				<clipPath id="SVGID_4_">
					<use xlink:href="#SVGID_3_"  overflow="visible"/>
				</clipPath>
				<polygon opacity="0.1" clip-path="url(#SVGID_4_)" fill="#162850" points="24.076,108.271 -14.542,84.561 13.559,32.5 
					52.177,56.212 				"/>
				<polygon opacity="0.1" clip-path="url(#SVGID_4_)" fill="#162850" points="32.459,44.784 22.544,33.874 31.344,17.57 
					51.271,9.934 				"/>
			</g>
			<g>
				<g>
					<g>
						<polygon fill="#FFFFFF" points="25.35,32.501 52.341,56.317 39.051,56.317 12.758,32.501 38.907,8.683 52.341,8.683 						"/>
					</g>
				</g>
			</g>
			<g>
				
					<polygon fill="none" stroke="#33B0CC" stroke-width="0.75" stroke-linecap="round" stroke-linejoin="round" stroke-miterlimit="10" points="
					42.231,12.117 52.341,8.683 25.35,32.501 19.053,32.501 				"/>
				
					<polygon fill="none" stroke="#33B0CC" stroke-width="0.75" stroke-linecap="round" stroke-linejoin="round" stroke-miterlimit="10" points="
					39.051,8.683 42.231,12.117 19.053,32.501 12.758,32.501 				"/>
				
					<polygon fill="none" stroke="#33B0CC" stroke-width="0.75" stroke-linecap="round" stroke-linejoin="round" stroke-miterlimit="10" points="
					52.341,8.683 42.231,12.117 39.051,8.683 				"/>
			</g>
			<g>
				
					<polygon fill="none" stroke="#33B0CC" stroke-width="0.75" stroke-linecap="round" stroke-linejoin="round" stroke-miterlimit="10" points="
					42.231,52.883 52.341,56.317 25.35,32.501 19.053,32.5 				"/>
				
					<polygon fill="none" stroke="#33B0CC" stroke-width="0.75" stroke-linecap="round" stroke-linejoin="round" stroke-miterlimit="10" points="
					39.051,56.317 42.231,52.883 19.053,32.5 12.758,32.501 				"/>
				
					<polygon fill="none" stroke="#33B0CC" stroke-width="0.75" stroke-linecap="round" stroke-linejoin="round" stroke-miterlimit="10" points="
					52.341,56.317 42.231,52.883 39.051,56.317 				"/>
			</g>
		</g>
	</g>
</g>
<g id="search" display="none">
	<g display="inline">
		<defs>
			<path id="SVGID_5_" d="M65.183,58.546c0,3.565-2.891,6.454-6.454,6.454H6.454C2.89,65,0,62.111,0,58.546V6.272
				c0-3.564,2.89-6.453,6.454-6.453h52.275c3.563,0,6.454,2.889,6.454,6.453V58.546z"/>
		</defs>
		<clipPath id="SVGID_6_">
			<use xlink:href="#SVGID_5_"  overflow="visible"/>
		</clipPath>
		<g id="arrow_19_" clip-path="url(#SVGID_6_)">
			<path fill="#33B0CC" d="M65.183,58.546c0,3.565-2.891,6.454-6.454,6.454H6.454C2.89,65,0,62.111,0,58.546V6.272
				c0-3.564,2.89-6.453,6.454-6.453h52.275c3.563,0,6.454,2.889,6.454,6.453V58.546z"/>
			<g>
				<defs>
					<path id="SVGID_7_" d="M65.183,58.546c0,3.565-2.891,6.454-6.454,6.454H6.454C2.89,65,0,62.111,0,58.546V6.272
						c0-3.564,2.89-6.453,6.454-6.453h52.275c3.563,0,6.454,2.889,6.454,6.453V58.546z"/>
				</defs>
				<clipPath id="SVGID_8_">
					<use xlink:href="#SVGID_7_"  overflow="visible"/>
				</clipPath>
			</g>
		</g>
		<path opacity="0.1" clip-path="url(#SVGID_6_)" fill="#162850" d="M20.506,15.456c5.928-6.558,16.271-9.946,20.587-7.809
			c7.921,1.727,13.907,6.735,14.704,15.559c0.982,4.039,0.143,10.038-0.664,11.591L26.957,88.651l-39.958-19.845L20.506,15.456z"/>
		
			<circle clip-path="url(#SVGID_6_)" fill="none" stroke="#FFFFFF" stroke-width="0.5" stroke-miterlimit="10" cx="36.877" cy="26.363" r="12.837"/>
		
			<circle clip-path="url(#SVGID_6_)" fill="none" stroke="#FFFFFF" stroke-width="2" stroke-miterlimit="10" cx="36.877" cy="26.363" r="19.181"/>
		
			<path clip-path="url(#SVGID_6_)" fill="none" stroke="#33B0CC" stroke-width="0.75" stroke-linecap="round" stroke-linejoin="round" stroke-miterlimit="10" d="
			M-3.26,68.678"/>
		
			<path clip-path="url(#SVGID_6_)" fill="none" stroke="#33B0CC" stroke-width="0.75" stroke-linecap="round" stroke-linejoin="round" stroke-miterlimit="10" d="
			M22.17,43.323"/>
		<g clip-path="url(#SVGID_6_)">
			
				<polygon fill="#FFFFFF" stroke="#33B0CC" stroke-width="0.75" stroke-linecap="round" stroke-linejoin="round" stroke-miterlimit="10" points="
				-11.832,85.412 -17.149,80.274 17.19,41.151 22.507,46.289 			"/>
			
				<line fill="none" stroke="#33B0CC" stroke-width="0.75" stroke-linecap="round" stroke-linejoin="round" stroke-miterlimit="10" x1="17.128" y1="46.821" x2="-11.769" y2="79.744"/>
			
				<line fill="none" stroke="#33B0CC" stroke-width="0.75" stroke-linecap="round" stroke-linejoin="round" stroke-miterlimit="10" x1="17.128" y1="46.821" x2="17.19" y2="41.151"/>
			
				<line fill="none" stroke="#33B0CC" stroke-width="0.75" stroke-linecap="round" stroke-linejoin="round" stroke-miterlimit="10" x1="17.128" y1="46.821" x2="22.507" y2="46.289"/>
		</g>
	</g>
</g>
<g id="hyperlink" display="none">
	<g display="inline">
		<defs>
			<path id="SVGID_9_" d="M64.977,58.6c0,3.553-2.88,6.431-6.432,6.431H6.45c-3.552,0-6.432-2.878-6.432-6.431V6.504
				c0-3.552,2.88-6.431,6.432-6.431h52.095c3.552,0,6.432,2.879,6.432,6.431V58.6z"/>
		</defs>
		<clipPath id="SVGID_10_">
			<use xlink:href="#SVGID_9_"  overflow="visible"/>
		</clipPath>
		<g id="arrow_8_" clip-path="url(#SVGID_10_)">
			<path fill="#33B0CC" d="M65.044,58.788c0,3.552-2.88,6.432-6.432,6.432H6.517c-3.552,0-6.432-2.88-6.432-6.432V6.693
				c0-3.553,2.88-6.431,6.432-6.431h52.095c3.552,0,6.432,2.878,6.432,6.431V58.788z"/>
			<g>
				<defs>
					<path id="SVGID_11_" d="M65.044,58.788c0,3.552-2.88,6.432-6.432,6.432H6.517c-3.552,0-6.432-2.88-6.432-6.432V6.693
						c0-3.553,2.88-6.431,6.432-6.431h52.095c3.552,0,6.432,2.878,6.432,6.431V58.788z"/>
				</defs>
				<clipPath id="SVGID_12_">
					<use xlink:href="#SVGID_11_"  overflow="visible"/>
				</clipPath>
				<polygon opacity="0.1" clip-path="url(#SVGID_12_)" fill="#162850" points="55.157,21.353 27.847,72.821 -17.634,95.636 
					10.354,43.552 23.285,30.558 28.639,27.622 31.452,22.458 44.27,10.98 47.692,9.84 51.734,12.346 54.111,15.974 				"/>
			</g>
			<g>
				
					<path fill="none" stroke="#FFFFFF" stroke-width="3" stroke-linecap="round" stroke-linejoin="round" stroke-miterlimit="10" d="
					M29.846,34.235l1.225,1.225c2.317,2.315,6.076,2.315,8.395,0l13.494-13.495c2.317-2.316,2.317-6.077,0-8.396l-1.225-1.222
					c-2.319-2.318-6.078-2.316-8.394,0L32.496,23.193"/>
				
					<path fill="none" stroke="#FFFFFF" stroke-width="3" stroke-linecap="round" stroke-linejoin="round" stroke-miterlimit="10" d="
					M32.636,42.288L21.791,53.133c-2.318,2.317-6.077,2.317-8.396,0l-1.225-1.222c-2.318-2.32-2.317-6.078,0-8.396L25.666,30.02
					c2.316-2.316,6.077-2.316,8.394,0l1.226,1.226"/>
			</g>
		</g>
		
			<path clip-path="url(#SVGID_10_)" fill="none" stroke="#33B0CC" stroke-width="0.75" stroke-linecap="round" stroke-linejoin="round" stroke-miterlimit="10" d="
			M-3.23,68.694"/>
		
			<path clip-path="url(#SVGID_10_)" fill="none" stroke="#33B0CC" stroke-width="0.75" stroke-linecap="round" stroke-linejoin="round" stroke-miterlimit="10" d="
			M22.111,43.428"/>
	</g>
</g>
<g id="up-arrow" display="none">
	<g id="arrow_18_" display="inline">
		<path fill="#33B0CC" d="M58.529,0.058c3.552,0,6.43,2.879,6.43,6.43V58.57c0,3.55-2.878,6.43-6.43,6.43H6.447
			c-3.551,0-6.429-2.88-6.429-6.43V6.488c0-3.55,2.878-6.43,6.429-6.43H58.529z"/>
		<g>
			<defs>
				<path id="SVGID_13_" d="M58.529,0.058c3.552,0,6.43,2.879,6.43,6.43V58.57c0,3.55-2.878,6.43-6.43,6.43H6.447
					c-3.551,0-6.429-2.88-6.429-6.43V6.488c0-3.55,2.878-6.43,6.429-6.43H58.529z"/>
			</defs>
			<clipPath id="SVGID_14_">
				<use xlink:href="#SVGID_13_"  overflow="visible"/>
			</clipPath>
			<polygon opacity="0.1" clip-path="url(#SVGID_14_)" fill="#162850" points="28.212,101.511 -19.065,90.983 8.984,39.02 
				34.209,21.017 56.261,49.545 			"/>
		</g>
		<g>
			<g>
				<g>
					<polygon fill="#FFFFFF" points="32.486,25.344 8.715,52.284 8.715,39.02 32.486,12.774 56.26,38.875 56.26,52.284 					"/>
				</g>
			</g>
		</g>
		<g>
			
				<polygon fill="none" stroke="#33B0CC" stroke-width="0.75" stroke-linecap="round" stroke-linejoin="round" stroke-miterlimit="10" points="
				52.832,42.192 56.26,52.284 32.486,25.344 32.486,19.059 			"/>
			
				<polygon fill="none" stroke="#33B0CC" stroke-width="0.75" stroke-linecap="round" stroke-linejoin="round" stroke-miterlimit="10" points="
				56.26,39.02 52.832,42.192 32.486,19.059 32.486,12.774 			"/>
			
				<polygon fill="none" stroke="#33B0CC" stroke-width="0.75" stroke-linecap="round" stroke-linejoin="round" stroke-miterlimit="10" points="
				56.26,52.284 52.832,42.192 56.26,39.02 			"/>
		</g>
		<g>
			
				<polygon fill="none" stroke="#33B0CC" stroke-width="0.75" stroke-linecap="round" stroke-linejoin="round" stroke-miterlimit="10" points="
				12.142,42.192 8.715,52.284 32.486,25.344 32.487,19.059 			"/>
			
				<polygon fill="none" stroke="#33B0CC" stroke-width="0.75" stroke-linecap="round" stroke-linejoin="round" stroke-miterlimit="10" points="
				8.715,39.02 12.142,42.192 32.487,19.059 32.486,12.774 			"/>
			
				<polygon fill="none" stroke="#33B0CC" stroke-width="0.75" stroke-linecap="round" stroke-linejoin="round" stroke-miterlimit="10" points="
				8.715,52.284 12.142,42.192 8.715,39.02 			"/>
		</g>
	</g>
</g>
<g id="down-arrow" display="none">
	<g id="arrow_17_" display="inline">
		<path fill="#33B0CC" d="M6.427,64.752c-3.541,0-6.41-2.871-6.41-6.411V6.418c0-3.539,2.869-6.41,6.41-6.41H58.35
			c3.541,0,6.41,2.871,6.41,6.41v51.922c0,3.54-2.869,6.411-6.41,6.411H6.427z"/>
		<g>
			<defs>
				<path id="SVGID_15_" d="M6.427,64.752c-3.541,0-6.41-2.871-6.41-6.411V6.418c0-3.539,2.869-6.41,6.41-6.41H58.35
					c3.541,0,6.41,2.871,6.41,6.41v51.922c0,3.54-2.869,6.411-6.41,6.411H6.427z"/>
			</defs>
			<clipPath id="SVGID_16_">
				<use xlink:href="#SVGID_15_"  overflow="visible"/>
			</clipPath>
			<polygon opacity="0.1" clip-path="url(#SVGID_16_)" fill="#162850" points="28.537,77.478 -19.092,66.532 8.872,14.728 
				29.321,43.292 56.5,25.673 			"/>
		</g>
		<g>
			<g>
				<g>
					<polygon fill="#FFFFFF" points="32.39,39.544 56.089,12.686 56.089,25.91 32.39,52.075 8.689,26.054 8.689,12.686 					"/>
				</g>
			</g>
		</g>
		<g>
			
				<polygon fill="none" stroke="#33B0CC" stroke-width="0.75" stroke-linecap="round" stroke-linejoin="round" stroke-miterlimit="10" points="
				12.106,22.747 8.689,12.687 32.39,39.544 32.39,45.81 			"/>
			
				<polygon fill="none" stroke="#33B0CC" stroke-width="0.75" stroke-linecap="round" stroke-linejoin="round" stroke-miterlimit="10" points="
				8.689,25.91 12.106,22.747 32.39,45.81 32.39,52.075 			"/>
			
				<polygon fill="none" stroke="#33B0CC" stroke-width="0.75" stroke-linecap="round" stroke-linejoin="round" stroke-miterlimit="10" points="
				8.689,12.687 12.106,22.747 8.689,25.91 			"/>
		</g>
		<g>
			
				<polygon fill="none" stroke="#33B0CC" stroke-width="0.75" stroke-linecap="round" stroke-linejoin="round" stroke-miterlimit="10" points="
				52.672,22.747 56.089,12.687 32.39,39.544 32.389,45.81 			"/>
			
				<polygon fill="none" stroke="#33B0CC" stroke-width="0.75" stroke-linecap="round" stroke-linejoin="round" stroke-miterlimit="10" points="
				56.089,25.91 52.672,22.747 32.389,45.81 32.39,52.075 			"/>
			
				<polygon fill="none" stroke="#33B0CC" stroke-width="0.75" stroke-linecap="round" stroke-linejoin="round" stroke-miterlimit="10" points="
				56.089,12.687 52.672,22.747 56.089,25.91 			"/>
		</g>
	</g>
</g>
<g id="right-arrow" display="none">
	<g display="inline">
		<defs>
			<path id="SVGID_17_" d="M64.674,58.352c0,3.535-2.867,6.4-6.401,6.4H6.419c-3.535,0-6.402-2.865-6.402-6.4V6.498
				c0-3.536,2.867-6.401,6.402-6.401h51.853c3.534,0,6.401,2.865,6.401,6.401V58.352z"/>
		</defs>
		<clipPath id="SVGID_18_">
			<use xlink:href="#SVGID_17_"  overflow="visible"/>
		</clipPath>
		<g id="arrow_15_" clip-path="url(#SVGID_18_)">
			<path fill="#33B0CC" d="M64.674,58.352c0,3.535-2.867,6.4-6.401,6.4H6.419c-3.535,0-6.402-2.865-6.402-6.4V6.498
				c0-3.536,2.867-6.401,6.402-6.401h51.853c3.534,0,6.401,2.865,6.401,6.401V58.352z"/>
			<g>
				<defs>
					<path id="SVGID_19_" d="M64.674,58.352c0,3.535-2.867,6.4-6.401,6.4H6.419c-3.535,0-6.402-2.865-6.402-6.4V6.498
						c0-3.536,2.867-6.401,6.402-6.401h51.853c3.534,0,6.401,2.865,6.401,6.401V58.352z"/>
				</defs>
				<defs>
					<polygon id="SVGID_20_" points="23.867,84.848 -14.742,61.362 13.184,9.627 51.792,33.112 					"/>
				</defs>
				<use xlink:href="#SVGID_20_"  overflow="visible" opacity="0.1" fill="#162850"/>
				<clipPath id="SVGID_21_">
					<use xlink:href="#SVGID_19_"  overflow="visible"/>
				</clipPath>
				<clipPath id="SVGID_22_" clip-path="url(#SVGID_21_)">
					<use xlink:href="#SVGID_20_"  overflow="visible" opacity="0.1"/>
				</clipPath>
			</g>
			<g>
				<g>
					<g>
						<polygon fill="#FFFFFF" points="39.499,32.423 12.678,8.756 25.884,8.756 52.015,32.423 26.028,56.093 12.678,56.093 						
							"/>
					</g>
				</g>
			</g>
			<g>
				
					<polygon fill="none" stroke="#33B0CC" stroke-width="0.75" stroke-linecap="round" stroke-linejoin="round" stroke-miterlimit="10" points="
					22.725,52.68 12.679,56.093 39.499,32.423 45.757,32.423 				"/>
				
					<polygon fill="none" stroke="#33B0CC" stroke-width="0.75" stroke-linecap="round" stroke-linejoin="round" stroke-miterlimit="10" points="
					25.884,56.093 22.725,52.68 45.757,32.423 52.015,32.423 				"/>
				
					<polygon fill="none" stroke="#33B0CC" stroke-width="0.75" stroke-linecap="round" stroke-linejoin="round" stroke-miterlimit="10" points="
					12.679,56.093 22.725,52.68 25.884,56.093 				"/>
			</g>
			<g>
				
					<polygon fill="none" stroke="#33B0CC" stroke-width="0.75" stroke-linecap="round" stroke-linejoin="round" stroke-miterlimit="10" points="
					22.725,12.168 12.679,8.756 39.499,32.423 45.757,32.425 				"/>
				
					<polygon fill="none" stroke="#33B0CC" stroke-width="0.75" stroke-linecap="round" stroke-linejoin="round" stroke-miterlimit="10" points="
					25.884,8.756 22.725,12.168 45.757,32.425 52.015,32.423 				"/>
				
					<polygon fill="none" stroke="#33B0CC" stroke-width="0.75" stroke-linecap="round" stroke-linejoin="round" stroke-miterlimit="10" points="
					12.679,8.756 22.725,12.168 25.884,8.756 				"/>
			</g>
		</g>
	</g>
</g>
<g id="pin">
	<g>
		<path fill="#33B0CC" d="M64.674,58.352c0,3.535-2.867,6.4-6.401,6.4H6.419c-3.535,0-6.402-2.865-6.402-6.4V6.498
			c0-3.536,2.867-6.401,6.402-6.401h51.853c3.534,0,6.401,2.865,6.401,6.401V58.352z"/>
		<g>
			<defs>
				<path id="SVGID_23_" d="M64.674,58.352c0,3.535-2.867,6.4-6.401,6.4H6.419c-3.535,0-6.402-2.865-6.402-6.4V6.498
					c0-3.536,2.867-6.401,6.402-6.401h51.853c3.534,0,6.401,2.865,6.401,6.401V58.352z"/>
			</defs>
			<clipPath id="SVGID_24_">
				<use xlink:href="#SVGID_23_"  overflow="visible"/>
			</clipPath>
			<polygon opacity="0.1" clip-path="url(#SVGID_24_)" fill="#162850" points="10.723,99.388 -19.35,87.162 8.575,35.427 
				27.135,34.334 38.648,47.652 			"/>
		</g>
		<path fill="none" d="M64.674,58.352c0,3.535-2.867,6.4-6.401,6.4H6.419c-3.535,0-6.402-2.865-6.402-6.4V6.498
			c0-3.536,2.867-6.401,6.402-6.401h51.853c3.534,0,6.401,2.865,6.401,6.401V58.352z"/>
		<g>
			<g>
				<g>
					<path fill="#FFFFFF" d="M28.86,57.129c-0.041,0-0.081-0.007-0.121-0.02c-0.135-0.046-0.232-0.165-0.251-0.307l-2.379-18.144
						L7.968,36.282c-0.142-0.019-0.26-0.116-0.306-0.251c-0.046-0.136-0.011-0.285,0.09-0.387l9.338-9.337
						c0.045-0.046,0.102-0.079,0.165-0.096l28.898-8.056c0.033-0.009,0.067-0.014,0.101-0.014c0.098,0,0.193,0.039,0.265,0.109
						c0.096,0.096,0.133,0.235,0.097,0.365l-7.953,28.798c-0.018,0.062-0.051,0.12-0.096,0.166l-9.44,9.439
						C29.054,57.091,28.958,57.129,28.86,57.129z"/>
					<path fill="#33B0CC" d="M46.253,18.516L38.3,47.314l-9.439,9.439l-2.417-18.429L8.017,35.91l9.338-9.338L46.253,18.516
						 M46.253,17.766c-0.067,0-0.135,0.009-0.201,0.027L17.154,25.85c-0.125,0.035-0.238,0.101-0.329,0.192L7.486,35.38
						c-0.202,0.202-0.272,0.501-0.18,0.771c0.092,0.271,0.329,0.465,0.612,0.502l17.856,2.341l2.342,17.857
						c0.037,0.283,0.232,0.521,0.502,0.612c0.079,0.027,0.16,0.04,0.241,0.04c0.196,0,0.387-0.077,0.53-0.22l9.439-9.439
						c0.092-0.092,0.158-0.206,0.192-0.331l7.953-28.798c0.072-0.261-0.002-0.54-0.193-0.73
						C46.64,17.843,46.449,17.766,46.253,17.766L46.253,17.766z"/>
				</g>
			</g>
		</g>
		
			<line fill="none" stroke="#33B0CC" stroke-width="0.75" stroke-linecap="round" stroke-linejoin="round" stroke-miterlimit="10" x1="26.444" y1="38.325" x2="46.253" y2="18.516"/>
		
			<line fill="none" stroke="#33B0CC" stroke-width="0.75" stroke-linecap="round" stroke-linejoin="round" stroke-miterlimit="10" x1="17.355" y1="26.572" x2="36.349" y2="28.421"/>
		
			<line fill="none" stroke="#33B0CC" stroke-width="0.75" stroke-linecap="round" stroke-linejoin="round" stroke-miterlimit="10" x1="36.349" y1="28.421" x2="38.3" y2="47.314"/>
		
			<line fill="none" stroke="#33B0CC" stroke-width="0.75" stroke-linecap="round" stroke-linejoin="round" stroke-miterlimit="10" x1="28.833" y1="57.501" x2="36.349" y2="28.421"/>
		
			<line fill="none" stroke="#33B0CC" stroke-width="0.75" stroke-linecap="round" stroke-linejoin="round" stroke-miterlimit="10" x1="8.017" y1="35.91" x2="36.349" y2="28.421"/>
	</g>
</g>
</svg>
